M48
; DRILL file {KiCad 9.0.7} date 2026-07-30T11:03:52+0300
; FORMAT={-:-/ absolute / metric / decimal}
; #@! TF.CreationDate,2026-07-30T11:03:52+03:00
; #@! TF.GenerationSoftware,Kicad,Pcbnew,9.0.7
; #@! TF.FileFunction,Plated,1,2,PTH
FMAT,2
METRIC
; #@! TA.AperFunction,Plated,PTH,ViaDrill
T1C0.300
; #@! TA.AperFunction,Plated,PTH,ComponentDrill
T2C0.300
; #@! TA.AperFunction,Plated,PTH,ViaDrill
T3C0.800
; #@! TA.AperFunction,Plated,PTH,ComponentDrill
T4C0.800
; #@! TA.AperFunction,Plated,PTH,ComponentDrill
T5C1.000
; #@! TA.AperFunction,Plated,PTH,ComponentDrill
T6C1.300
; #@! TA.AperFunction,Plated,PTH,ComponentDrill
T7C3.200
; #@! TA.AperFunction,Plated,PTH,ViaDrill
T8C4.800
%
G90
G05
T1
X56.037Y-95.004
X56.43Y-58.689
X56.43Y-59.966
X56.43Y-61.416
X56.43Y-62.879
X56.43Y-64.156
X56.43Y-65.606
X56.43Y-66.849
X56.43Y-68.126
X56.43Y-69.576
X56.43Y-71.716
X56.43Y-73.609
X56.43Y-74.886
X56.72Y-77.946
X56.72Y-79.396
X56.72Y-81.159
X56.72Y-82.436
X56.72Y-84.464
X56.72Y-85.926
X57.785Y-95.004
X58.179Y-74.886
X58.219Y-85.926
X58.362Y-62.879
X58.362Y-64.156
X58.362Y-65.606
X58.362Y-66.849
X58.362Y-68.126
X58.362Y-69.576
X58.362Y-71.716
X58.362Y-73.609
X58.415Y-84.464
X58.469Y-77.946
X58.469Y-79.396
X58.469Y-82.436
X58.652Y-81.159
X58.879Y-58.689
X58.879Y-59.966
X58.879Y-61.416
X59.56Y-71.91
X59.68Y-73.67
X59.997Y-68.454
X60.0Y-69.696
X60.61Y-82.976
X60.61Y-84.426
X60.727Y-73.397
X60.85Y-59.896
X60.85Y-61.346
X60.91Y-72.12
X60.91Y-65.314
X60.91Y-66.764
X61.034Y-58.619
X61.094Y-64.037
X61.745Y-68.454
X61.749Y-69.696
X61.79Y-71.446
X62.359Y-82.976
X62.359Y-84.426
X62.599Y-59.896
X62.599Y-61.346
X62.659Y-65.314
X62.659Y-66.764
X62.659Y-72.864
X62.782Y-58.619
X62.842Y-64.037
X63.539Y-71.446
X63.539Y-72.896
T2
X63.314Y-104.739
X63.314Y-105.939
X64.414Y-104.739
X64.414Y-105.939
X65.714Y-104.739
X65.714Y-105.939
X66.914Y-104.739
X66.914Y-105.939
T3
X58.264Y-105.319
X59.09Y-99.53
X65.86Y-95.9
X67.56Y-120.55
X80.94Y-71.8
X82.32Y-118.69
X83.9Y-82.93
X84.44Y-91.35
X92.601Y-117.465
X92.95Y-85.39
X96.54Y-80.42
X99.58Y-80.04
X103.18Y-111.37
X103.36Y-85.37
X103.81Y-74.38
X103.865Y-88.545
X104.69Y-82.307
X105.71Y-107.31
X109.65Y-109.5
X109.88Y-89.33
X110.07Y-79.98
X110.5Y-86.14
X113.65Y-110.94
T4
X66.064Y-137.216
X66.064Y-142.216
X75.864Y-137.216
X75.864Y-142.216
T5
X62.659Y-65.814
X62.659Y-78.446
X67.659Y-65.814
X67.659Y-78.446
X73.449Y-56.994
X73.459Y-51.914
X77.26Y-68.98
X79.8Y-68.98
X82.34Y-68.98
X94.432Y-68.272
X96.972Y-68.272
X99.512Y-68.272
T6
X62.516Y-49.794
X62.516Y-54.794
X79.188Y-52.475
X84.188Y-52.475
X87.675Y-138.229
X91.007Y-52.395
X92.675Y-138.229
X96.007Y-52.395
X100.08Y-138.229
X102.547Y-52.277
X105.08Y-138.229
X107.547Y-52.277
X113.867Y-52.595
X118.212Y-122.84
X118.212Y-127.84
X118.39Y-81.02
X118.39Y-86.02
X118.867Y-52.595
T7
X59.02Y-42.12
X119.67Y-140.46
X120.99Y-41.75
T8
X100.42Y-100.35
X120.93Y-64.08
M30
