%TF.GenerationSoftware,KiCad,Pcbnew,9.0.7*%
%TF.CreationDate,2026-07-30T11:04:25+03:00*%
%TF.ProjectId,reg_lat_r,726567fc-6c61-474f-9672-2e6b69636164,rev?*%
%TF.SameCoordinates,Original*%
%TF.FileFunction,Soldermask,Top*%
%TF.FilePolarity,Negative*%
%FSLAX46Y46*%
G04 Gerber Fmt 4.6, Leading zero omitted, Abs format (unit mm)*
G04 Created by KiCad (PCBNEW 9.0.7) date 2026-07-30 11:04:25*
%MOMM*%
%LPD*%
G01*
G04 APERTURE LIST*
G04 Aperture macros list*
%AMRoundRect*
0 Rectangle with rounded corners*
0 $1 Rounding radius*
0 $2 $3 $4 $5 $6 $7 $8 $9 X,Y pos of 4 corners*
0 Add a 4 corners polygon primitive as box body*
4,1,4,$2,$3,$4,$5,$6,$7,$8,$9,$2,$3,0*
0 Add four circle primitives for the rounded corners*
1,1,$1+$1,$2,$3*
1,1,$1+$1,$4,$5*
1,1,$1+$1,$6,$7*
1,1,$1+$1,$8,$9*
0 Add four rect primitives between the rounded corners*
20,1,$1+$1,$2,$3,$4,$5,0*
20,1,$1+$1,$4,$5,$6,$7,0*
20,1,$1+$1,$6,$7,$8,$9,0*
20,1,$1+$1,$8,$9,$2,$3,0*%
G04 Aperture macros list end*
%ADD10RoundRect,0.250001X2.399999X-0.487499X2.399999X0.487499X-2.399999X0.487499X-2.399999X-0.487499X0*%
%ADD11RoundRect,0.250000X0.750000X0.750000X-0.750000X0.750000X-0.750000X-0.750000X0.750000X-0.750000X0*%
%ADD12C,2.000000*%
%ADD13RoundRect,0.250000X-1.050000X-1.050000X1.050000X-1.050000X1.050000X1.050000X-1.050000X1.050000X0*%
%ADD14C,2.600000*%
%ADD15RoundRect,0.250000X0.650000X-0.325000X0.650000X0.325000X-0.650000X0.325000X-0.650000X-0.325000X0*%
%ADD16RoundRect,0.250000X-0.550000X1.050000X-0.550000X-1.050000X0.550000X-1.050000X0.550000X1.050000X0*%
%ADD17R,1.700000X1.700000*%
%ADD18C,1.700000*%
%ADD19RoundRect,0.250000X0.475000X-0.250000X0.475000X0.250000X-0.475000X0.250000X-0.475000X-0.250000X0*%
%ADD20RoundRect,0.250000X-0.450000X0.262500X-0.450000X-0.262500X0.450000X-0.262500X0.450000X0.262500X0*%
%ADD21RoundRect,0.250000X1.050000X0.550000X-1.050000X0.550000X-1.050000X-0.550000X1.050000X-0.550000X0*%
%ADD22RoundRect,0.250000X1.000000X0.900000X-1.000000X0.900000X-1.000000X-0.900000X1.000000X-0.900000X0*%
%ADD23RoundRect,0.250000X-0.550000X1.250000X-0.550000X-1.250000X0.550000X-1.250000X0.550000X1.250000X0*%
%ADD24RoundRect,0.243750X-0.456250X0.243750X-0.456250X-0.243750X0.456250X-0.243750X0.456250X0.243750X0*%
%ADD25RoundRect,0.250000X0.250000X0.475000X-0.250000X0.475000X-0.250000X-0.475000X0.250000X-0.475000X0*%
%ADD26RoundRect,0.243750X0.456250X-0.243750X0.456250X0.243750X-0.456250X0.243750X-0.456250X-0.243750X0*%
%ADD27RoundRect,0.250000X-0.550000X0.550000X-0.550000X-0.550000X0.550000X-0.550000X0.550000X0.550000X0*%
%ADD28C,1.600000*%
%ADD29RoundRect,0.250000X1.050000X-1.050000X1.050000X1.050000X-1.050000X1.050000X-1.050000X-1.050000X0*%
%ADD30RoundRect,0.250000X0.650000X-1.000000X0.650000X1.000000X-0.650000X1.000000X-0.650000X-1.000000X0*%
%ADD31RoundRect,0.250000X1.050000X1.050000X-1.050000X1.050000X-1.050000X-1.050000X1.050000X-1.050000X0*%
%ADD32RoundRect,0.250000X1.250000X0.550000X-1.250000X0.550000X-1.250000X-0.550000X1.250000X-0.550000X0*%
%ADD33RoundRect,0.140000X-0.170000X0.140000X-0.170000X-0.140000X0.170000X-0.140000X0.170000X0.140000X0*%
%ADD34RoundRect,0.200000X0.200000X0.275000X-0.200000X0.275000X-0.200000X-0.275000X0.200000X-0.275000X0*%
%ADD35RoundRect,0.375000X0.375000X-0.625000X0.375000X0.625000X-0.375000X0.625000X-0.375000X-0.625000X0*%
%ADD36RoundRect,0.500000X1.400000X-0.500000X1.400000X0.500000X-1.400000X0.500000X-1.400000X-0.500000X0*%
%ADD37RoundRect,0.225000X0.375000X-0.225000X0.375000X0.225000X-0.375000X0.225000X-0.375000X-0.225000X0*%
%ADD38RoundRect,0.250000X-0.262500X-0.450000X0.262500X-0.450000X0.262500X0.450000X-0.262500X0.450000X0*%
%ADD39RoundRect,0.250000X0.450000X-0.262500X0.450000X0.262500X-0.450000X0.262500X-0.450000X-0.262500X0*%
%ADD40RoundRect,0.250000X0.262500X0.450000X-0.262500X0.450000X-0.262500X-0.450000X0.262500X-0.450000X0*%
%ADD41RoundRect,0.140000X0.140000X0.170000X-0.140000X0.170000X-0.140000X-0.170000X0.140000X-0.170000X0*%
%ADD42RoundRect,0.250000X-0.475000X0.250000X-0.475000X-0.250000X0.475000X-0.250000X0.475000X0.250000X0*%
%ADD43C,5.600000*%
%ADD44RoundRect,0.250000X-1.000000X-0.650000X1.000000X-0.650000X1.000000X0.650000X-1.000000X0.650000X0*%
%ADD45RoundRect,0.250000X-0.800000X0.450000X-0.800000X-0.450000X0.800000X-0.450000X0.800000X0.450000X0*%
%ADD46RoundRect,0.150000X0.825000X0.150000X-0.825000X0.150000X-0.825000X-0.150000X0.825000X-0.150000X0*%
%ADD47RoundRect,0.200000X-0.275000X0.200000X-0.275000X-0.200000X0.275000X-0.200000X0.275000X0.200000X0*%
%ADD48R,2.900000X5.400000*%
%ADD49RoundRect,0.250000X-1.050000X1.050000X-1.050000X-1.050000X1.050000X-1.050000X1.050000X1.050000X0*%
%ADD50RoundRect,0.200000X0.275000X-0.200000X0.275000X0.200000X-0.275000X0.200000X-0.275000X-0.200000X0*%
%ADD51R,0.600000X1.550000*%
%ADD52R,3.100000X2.600000*%
%ADD53RoundRect,0.200000X-0.200000X-0.275000X0.200000X-0.275000X0.200000X0.275000X-0.200000X0.275000X0*%
G04 APERTURE END LIST*
D10*
%TO.C,R32*%
X104257500Y-72750000D03*
X104257500Y-63125000D03*
%TD*%
D11*
%TO.C,C4*%
X67658750Y-65813927D03*
D12*
X62658750Y-65813927D03*
%TD*%
D13*
%TO.C,J3*%
X100080000Y-138228725D03*
D14*
X105080000Y-138228725D03*
%TD*%
D15*
%TO.C,C6*%
X67216250Y-94761427D03*
X67216250Y-91811427D03*
%TD*%
D12*
%TO.C,TP2*%
X99770000Y-126080000D03*
%TD*%
D16*
%TO.C,C28*%
X81047500Y-109625000D03*
X81047500Y-113225000D03*
%TD*%
D17*
%TO.C,Q2*%
X77260000Y-68980000D03*
D18*
X79800000Y-68980000D03*
X82340000Y-68980000D03*
%TD*%
D19*
%TO.C,C1*%
X69813750Y-106288927D03*
X69813750Y-104388927D03*
%TD*%
D20*
%TO.C,R2*%
X65088750Y-92393927D03*
X65088750Y-94218927D03*
%TD*%
D21*
%TO.C,C10*%
X112247500Y-95466897D03*
X108647500Y-95466897D03*
%TD*%
D19*
%TO.C,C40*%
X102600000Y-83860000D03*
X102600000Y-81960000D03*
%TD*%
D22*
%TO.C,D11*%
X62848750Y-88238927D03*
X67148750Y-88238927D03*
%TD*%
D23*
%TO.C,C41*%
X98210000Y-80180000D03*
X98210000Y-84580000D03*
%TD*%
D24*
%TO.C,D1*%
X115765000Y-93216897D03*
X115765000Y-95091897D03*
%TD*%
D12*
%TO.C,TP1*%
X103090000Y-126300000D03*
%TD*%
D13*
%TO.C,J2*%
X87675000Y-138228725D03*
D14*
X92675000Y-138228725D03*
%TD*%
D25*
%TO.C,C11*%
X111122500Y-110778750D03*
X109222500Y-110778750D03*
%TD*%
D26*
%TO.C,D8*%
X111730000Y-86717500D03*
X111730000Y-84842500D03*
%TD*%
D27*
%TO.C,C3*%
X75863750Y-137216276D03*
D28*
X75863750Y-142216276D03*
%TD*%
D29*
%TO.C,J5*%
X118390000Y-86020000D03*
D14*
X118390000Y-81020000D03*
%TD*%
D30*
%TO.C,D3*%
X77667500Y-105732500D03*
X77667500Y-101732500D03*
%TD*%
D31*
%TO.C,J7*%
X84187500Y-52475000D03*
D14*
X79187500Y-52475000D03*
%TD*%
D20*
%TO.C,R22*%
X82030000Y-80947500D03*
X82030000Y-82772500D03*
%TD*%
%TO.C,R20*%
X81690000Y-89087500D03*
X81690000Y-90912500D03*
%TD*%
D29*
%TO.C,J4*%
X118212500Y-127840000D03*
D14*
X118212500Y-122840000D03*
%TD*%
D32*
%TO.C,C9*%
X112812500Y-116228750D03*
X108412500Y-116228750D03*
%TD*%
D24*
%TO.C,D7*%
X111540000Y-79402500D03*
X111540000Y-81277500D03*
%TD*%
D20*
%TO.C,R35*%
X76770000Y-93597500D03*
X76770000Y-95422500D03*
%TD*%
D19*
%TO.C,C5*%
X58838750Y-140568927D03*
X58838750Y-138668927D03*
%TD*%
D27*
%TO.C,C7*%
X66063750Y-137216276D03*
D28*
X66063750Y-142216276D03*
%TD*%
D33*
%TO.C,C2*%
X65088750Y-116638927D03*
X65088750Y-117598927D03*
%TD*%
D34*
%TO.C,R1*%
X60863750Y-97818927D03*
X59213750Y-97818927D03*
%TD*%
D35*
%TO.C,U6*%
X85335000Y-116546225D03*
X87635000Y-116546225D03*
D36*
X87635000Y-110246225D03*
D35*
X89935000Y-116546225D03*
%TD*%
D20*
%TO.C,R60*%
X106795000Y-82472500D03*
X106795000Y-84297500D03*
%TD*%
D37*
%TO.C,D9*%
X78870000Y-91450000D03*
X78870000Y-88150000D03*
%TD*%
D12*
%TO.C,F1*%
X73458750Y-51913927D03*
X73448750Y-56993927D03*
%TD*%
%TO.C,TP4*%
X64630000Y-42110000D03*
%TD*%
D38*
%TO.C,R18*%
X65226250Y-114243927D03*
X67051250Y-114243927D03*
%TD*%
D17*
%TO.C,Q1*%
X94432500Y-68272500D03*
D18*
X96972500Y-68272500D03*
X99512500Y-68272500D03*
%TD*%
D39*
%TO.C,R3*%
X62363750Y-94168927D03*
X62363750Y-92343927D03*
%TD*%
D21*
%TO.C,C20*%
X89407500Y-99575000D03*
X85807500Y-99575000D03*
%TD*%
D32*
%TO.C,C27*%
X89930000Y-126064975D03*
X85530000Y-126064975D03*
%TD*%
D40*
%TO.C,R21*%
X81332500Y-85680000D03*
X79507500Y-85680000D03*
%TD*%
D41*
%TO.C,R13*%
X110693750Y-92340000D03*
X109733750Y-92340000D03*
%TD*%
D35*
%TO.C,U7*%
X107830000Y-107228750D03*
X110130000Y-107228750D03*
D36*
X110130000Y-100928750D03*
D35*
X112430000Y-107228750D03*
%TD*%
D25*
%TO.C,C12*%
X88461250Y-121174975D03*
X86561250Y-121174975D03*
%TD*%
D40*
%TO.C,R47*%
X82922500Y-105570000D03*
X81097500Y-105570000D03*
%TD*%
D31*
%TO.C,J8*%
X107547500Y-52277500D03*
D14*
X102547500Y-52277500D03*
%TD*%
D10*
%TO.C,R9*%
X87547500Y-72780000D03*
X87547500Y-63155000D03*
%TD*%
D42*
%TO.C,C16*%
X67288750Y-116218927D03*
X67288750Y-118118927D03*
%TD*%
D43*
%TO.C,H1*%
X120990000Y-41750000D03*
%TD*%
D38*
%TO.C,R7*%
X94997500Y-72740000D03*
X96822500Y-72740000D03*
%TD*%
D37*
%TO.C,D5*%
X79360000Y-83387500D03*
X79360000Y-80087500D03*
%TD*%
D43*
%TO.C,H3*%
X59020000Y-42120000D03*
%TD*%
D12*
%TO.C,TP3*%
X95960000Y-125970000D03*
%TD*%
D31*
%TO.C,J9*%
X118867500Y-52595000D03*
D14*
X113867500Y-52595000D03*
%TD*%
D44*
%TO.C,D6*%
X90460000Y-90720000D03*
X94460000Y-90720000D03*
%TD*%
D45*
%TO.C,D2*%
X70388750Y-114393927D03*
X70388750Y-118793927D03*
%TD*%
D40*
%TO.C,R17*%
X62738750Y-114268927D03*
X60913750Y-114268927D03*
%TD*%
D46*
%TO.C,U5*%
X90900000Y-85390000D03*
X90900000Y-84120000D03*
X90900000Y-82850000D03*
X90900000Y-81580000D03*
X85950000Y-81580000D03*
X85950000Y-82850000D03*
X85950000Y-84120000D03*
X85950000Y-85390000D03*
%TD*%
D43*
%TO.C,H2*%
X119670000Y-140460000D03*
%TD*%
D47*
%TO.C,R5*%
X106840000Y-78705000D03*
X106840000Y-80355000D03*
%TD*%
D39*
%TO.C,R16*%
X62556250Y-118943927D03*
X62556250Y-117118927D03*
%TD*%
D12*
%TO.C,TP5*%
X76570000Y-72610000D03*
%TD*%
D31*
%TO.C,J6*%
X96007500Y-52395000D03*
D14*
X91007500Y-52395000D03*
%TD*%
D12*
%TO.C,TP6*%
X92302500Y-72532500D03*
%TD*%
D48*
%TO.C,L2*%
X69788750Y-127893927D03*
X59888750Y-127893927D03*
%TD*%
D11*
%TO.C,C26*%
X67658750Y-78446250D03*
D12*
X62658750Y-78446250D03*
%TD*%
D49*
%TO.C,J1*%
X62516250Y-49793927D03*
D14*
X62516250Y-54793927D03*
%TD*%
D38*
%TO.C,R8*%
X76647500Y-76600000D03*
X78472500Y-76600000D03*
%TD*%
D50*
%TO.C,R6*%
X108860000Y-86735000D03*
X108860000Y-85085000D03*
%TD*%
D40*
%TO.C,R23*%
X84632500Y-78490000D03*
X82807500Y-78490000D03*
%TD*%
D51*
%TO.C,U1*%
X67018750Y-102638927D03*
X65748750Y-102638927D03*
X64478750Y-102638927D03*
X63208750Y-102638927D03*
X63208750Y-108038927D03*
X64478750Y-108038927D03*
X65748750Y-108038927D03*
X67018750Y-108038927D03*
D52*
X65113750Y-105338927D03*
%TD*%
D53*
%TO.C,R4*%
X114845000Y-100298750D03*
X116495000Y-100298750D03*
%TD*%
M02*
